<svg width="140" height="35" viewBox="0 0 140 35" fill="none" xmlns="http://www.w3.org/2000/svg">
<g clip-path="url(#clip0_248_173)">
<path d="M17.2801 26V23.148L26.7561 11.901L27.3081 13.511H17.4871V9.9H31.3561V12.752L21.8801 23.999L21.3281 22.389H31.7011V26H17.2801ZM39.3776 26.207C38.3656 26.207 37.4532 26.0077 36.6406 25.609C35.8432 25.2103 35.2146 24.5893 34.7546 23.746C34.3099 22.8873 34.0876 21.8063 34.0876 20.503V13.534H38.4576V19.79C38.4576 20.756 38.6339 21.446 38.9866 21.86C39.3546 22.274 39.8682 22.481 40.5276 22.481C40.9569 22.481 41.3479 22.3813 41.7006 22.182C42.0532 21.9827 42.3369 21.6683 42.5516 21.239C42.7662 20.7943 42.8736 20.227 42.8736 19.537V13.534H47.2436V26H43.0806V22.481L43.8856 23.47C43.4562 24.39 42.8352 25.08 42.0226 25.54C41.2099 25.9847 40.3282 26.207 39.3776 26.207ZM58.9824 26.322C57.7097 26.322 56.529 26.1227 55.4404 25.724C54.367 25.31 53.4317 24.7273 52.6344 23.976C51.8524 23.2247 51.239 22.343 50.7944 21.331C50.3497 20.3037 50.1274 19.1767 50.1274 17.95C50.1274 16.7233 50.3497 15.604 50.7944 14.592C51.239 13.5647 51.8524 12.6753 52.6344 11.924C53.4317 11.1727 54.367 10.5977 55.4404 10.199C56.529 9.785 57.7097 9.578 58.9824 9.578C60.4697 9.578 61.796 9.83867 62.9614 10.36C64.142 10.8813 65.1234 11.6327 65.9054 12.614L63.0074 15.236C62.486 14.6227 61.911 14.155 61.2824 13.833C60.669 13.511 59.979 13.35 59.2124 13.35C58.553 13.35 57.9474 13.4573 57.3954 13.672C56.8434 13.8867 56.368 14.201 55.9694 14.615C55.586 15.0137 55.2794 15.4967 55.0494 16.064C54.8347 16.6313 54.7274 17.26 54.7274 17.95C54.7274 18.64 54.8347 19.2687 55.0494 19.836C55.2794 20.4033 55.586 20.894 55.9694 21.308C56.368 21.7067 56.8434 22.0133 57.3954 22.228C57.9474 22.4427 58.553 22.55 59.2124 22.55C59.979 22.55 60.669 22.389 61.2824 22.067C61.911 21.745 62.486 21.2773 63.0074 20.664L65.9054 23.286C65.1234 24.252 64.142 25.0033 62.9614 25.54C61.796 26.0613 60.4697 26.322 58.9824 26.322ZM68.4188 26V13.534H72.7888V26H68.4188ZM70.6038 12.154C69.8065 12.154 69.1625 11.9317 68.6718 11.487C68.1812 11.0423 67.9358 10.4903 67.9358 9.831C67.9358 9.17167 68.1812 8.61967 68.6718 8.175C69.1625 7.73033 69.8065 7.508 70.6038 7.508C71.4012 7.508 72.0452 7.72267 72.5358 8.152C73.0265 8.566 73.2718 9.10267 73.2718 9.762C73.2718 10.452 73.0265 11.027 72.5358 11.487C72.0605 11.9317 71.4165 12.154 70.6038 12.154ZM76.5258 26V9.9H84.7598C86.8758 9.9 88.4551 10.291 89.4978 11.073C90.5405 11.8397 91.0618 12.8517 91.0618 14.109C91.0618 14.937 90.8395 15.6653 90.3948 16.294C89.9655 16.9073 89.3521 17.398 88.5548 17.766C87.7728 18.1187 86.8375 18.295 85.7488 18.295L86.2088 17.191C87.3435 17.191 88.3325 17.3673 89.1758 17.72C90.0191 18.0573 90.6708 18.5557 91.1308 19.215C91.6061 19.859 91.8438 20.6487 91.8438 21.584C91.8438 22.9793 91.2765 24.068 90.1418 24.85C89.0225 25.6167 87.3818 26 85.2198 26H76.5258ZM81.0338 22.711H84.8518C85.6338 22.711 86.2241 22.5807 86.6228 22.32C87.0368 22.044 87.2438 21.63 87.2438 21.078C87.2438 20.526 87.0368 20.1197 86.6228 19.859C86.2241 19.583 85.6338 19.445 84.8518 19.445H80.7118V16.294H84.1618C84.9285 16.294 85.5035 16.1637 85.8868 15.903C86.2701 15.6423 86.4618 15.2513 86.4618 14.73C86.4618 14.2087 86.2701 13.8253 85.8868 13.58C85.5035 13.3193 84.9285 13.189 84.1618 13.189H81.0338V22.711ZM102.299 26V23.677L102 23.102V18.824C102 18.134 101.785 17.605 101.356 17.237C100.942 16.8537 100.275 16.662 99.3546 16.662C98.7566 16.662 98.1509 16.7617 97.5376 16.961C96.9242 17.145 96.4029 17.4057 95.9736 17.743L94.5016 14.776C95.2069 14.316 96.0502 13.9633 97.0316 13.718C98.0282 13.4573 99.0172 13.327 99.9986 13.327C102.023 13.327 103.587 13.7947 104.691 14.73C105.81 15.65 106.37 17.099 106.37 19.077V26H102.299ZM98.6186 26.207C97.6219 26.207 96.7786 26.0383 96.0886 25.701C95.3986 25.3637 94.8696 24.9037 94.5016 24.321C94.1489 23.7383 93.9726 23.0867 93.9726 22.366C93.9726 21.5993 94.1642 20.94 94.5476 20.388C94.9462 19.8207 95.5519 19.3913 96.3646 19.1C97.1772 18.7933 98.2276 18.64 99.5156 18.64H102.46V20.917H100.114C99.4082 20.917 98.9099 21.032 98.6186 21.262C98.3426 21.492 98.2046 21.7987 98.2046 22.182C98.2046 22.5653 98.3502 22.872 98.6416 23.102C98.9329 23.332 99.3316 23.447 99.8376 23.447C100.313 23.447 100.742 23.332 101.126 23.102C101.524 22.8567 101.816 22.4887 102 21.998L102.598 23.608C102.368 24.4667 101.915 25.1183 101.241 25.563C100.581 25.9923 99.7072 26.207 98.6186 26.207ZM109.818 26V8.934H114.188V26H109.818ZM117.718 26V8.934H122.088V26H117.718Z" fill="#0076B6"/>
<path fill-rule="evenodd" clip-rule="evenodd" d="M56 18.1C56 16.3879 57.3879 15 59.1 15C60.8121 15 62.2 16.3879 62.2 18.1C62.2 19.8121 60.8121 21.2 59.1 21.2C57.3879 21.2 56 19.8121 56 18.1Z" fill="url(#paint0_linear_248_173)"/>
<path fill-rule="evenodd" clip-rule="evenodd" d="M57.212 20.3733C57.0722 20.2587 56.9432 20.1316 56.8267 19.9937C57.3899 19.5522 57.7514 18.868 57.7514 18.1C57.7514 17.332 57.3899 16.6478 56.8267 16.2063C56.9432 16.0684 57.0722 15.9413 57.212 15.8267C57.8709 16.3672 58.2908 17.1849 58.2908 18.1C58.2908 19.0151 57.8709 19.8328 57.212 20.3733ZM59.9092 18.1C59.9092 17.1849 60.3291 16.3672 60.988 15.8267C61.1278 15.9413 61.2568 16.0684 61.3733 16.2063C60.8101 16.6478 60.4486 17.332 60.4486 18.1C60.4486 18.868 60.8101 19.5522 61.3733 19.9937C61.2568 20.1316 61.1278 20.2587 60.988 20.3733C60.3291 19.8328 59.9092 19.0151 59.9092 18.1Z" fill="#850026"/>
</g>
<defs>
<linearGradient id="paint0_linear_248_173" x1="55.7182" y1="14.7182" x2="62.4818" y2="21.4818" gradientUnits="userSpaceOnUse">
<stop offset="0.083" stop-color="#FF6A6A"/>
<stop offset="1" stop-color="#F72257"/>
</linearGradient>
<clipPath id="clip0_248_173">
<rect width="140" height="35" fill="white"/>
</clipPath>
</defs>
</svg>
